<svg width="36" height="36" viewBox="0 0 36 36" fill="none" xmlns="http://www.w3.org/2000/svg">
<path d="M17.8573 11.7904C14.6091 11.7904 11.9584 14.4411 11.9584 17.6893C11.9584 20.9375 14.6091 23.5883 17.8573 23.5883C21.1055 23.5883 23.7563 20.9375 23.7563 17.6893C23.7563 14.4411 21.1055 11.7904 17.8573 11.7904ZM35.5498 17.6893C35.5498 15.2465 35.5719 12.8259 35.4347 10.3875C35.2975 7.55534 34.6514 5.04176 32.5804 2.97071C30.5049 0.895231 27.9957 0.25356 25.1635 0.116375C22.7208 -0.0208104 20.3001 0.00131629 17.8617 0.00131629C15.419 0.00131629 12.9983 -0.0208104 10.56 0.116375C7.72776 0.25356 5.21418 0.899656 3.14313 2.97071C1.06766 5.04618 0.425984 7.55534 0.288799 10.3875C0.151614 12.8303 0.173741 15.251 0.173741 17.6893C0.173741 20.1277 0.151614 22.5528 0.288799 24.9911C0.425984 27.8233 1.07208 30.3369 3.14313 32.4079C5.21861 34.4834 7.72776 35.1251 10.56 35.2623C13.0027 35.3995 15.4234 35.3773 17.8617 35.3773C20.3045 35.3773 22.7252 35.3995 25.1635 35.2623C27.9957 35.1251 30.5093 34.479 32.5804 32.4079C34.6558 30.3325 35.2975 27.8233 35.4347 24.9911C35.5763 22.5528 35.5498 20.1321 35.5498 17.6893ZM17.8573 26.7657C12.8346 26.7657 8.78099 22.7121 8.78099 17.6893C8.78099 12.6666 12.8346 8.61299 17.8573 8.61299C22.8801 8.61299 26.9337 12.6666 26.9337 17.6893C26.9337 22.7121 22.8801 26.7657 17.8573 26.7657ZM27.3054 10.361C26.1327 10.361 25.1857 9.41398 25.1857 8.24127C25.1857 7.06855 26.1327 6.12154 27.3054 6.12154C28.4781 6.12154 29.4251 7.06855 29.4251 8.24127C29.4255 8.51973 29.3709 8.79553 29.2645 9.05286C29.1581 9.3102 29.0019 9.54401 28.805 9.74092C28.6081 9.93782 28.3743 10.0939 28.117 10.2004C27.8597 10.3068 27.5839 10.3613 27.3054 10.361Z"/>
</svg>
